<?xml version="1.0" standalone="no"?>
<!DOCTYPE svg PUBLIC "-//W3C//DTD SVG 20010904//EN"
 "http://www.w3.org/TR/2001/REC-SVG-20010904/DTD/svg10.dtd">
<svg version="1.0" xmlns="http://www.w3.org/2000/svg"
 width="500.000000pt" height="500.000000pt" viewBox="0 0 500.000000 500.000000"
 preserveAspectRatio="xMidYMid meet">

<g transform="translate(0.000000,500.000000) scale(0.100000,-0.100000)"
fill="#000000" stroke="none">
<path d="M1720 4455 l0 -75 780 0 780 0 0 75 0 75 -780 0 -780 0 0 -75z"/>
<path d="M1250 4295 l0 -75 -80 0 -80 0 0 -315 0 -315 -75 0 -75 0 0 -390 0
-390 235 0 235 0 0 -75 0 -75 -235 0 -235 0 0 -160 0 -160 -80 0 -80 0 0 -235
0 -236 -77 3 -78 3 -3 78 -3 77 -74 0 -75 0 0 -155 0 -155 -80 0 -81 0 3 -77
3 -78 153 -3 152 -3 0 81 0 80 160 0 160 0 0 235 0 235 75 0 75 0 0 155 0 155
160 0 161 0 -3 -77 -3 -78 -77 -3 -78 -3 0 -389 0 -390 235 0 235 0 0 -75 0
-75 155 0 155 0 0 -630 0 -630 -75 0 -75 0 0 -75 0 -75 230 0 230 0 0 75 0 75
-75 0 -75 0 0 630 0 630 310 0 310 0 0 -630 0 -630 -75 0 -75 0 0 -75 0 -75
230 0 230 0 0 75 0 75 -75 0 -75 0 0 630 0 630 155 0 155 0 0 75 0 75 235 0
235 0 0 390 0 389 -77 3 -78 3 -3 78 -3 77 161 0 160 0 0 -155 0 -155 75 0 75
0 0 -235 0 -235 160 0 160 0 0 -80 0 -81 153 3 152 3 3 78 3 77 -81 0 -80 0 0
155 0 155 -75 0 -74 0 -3 -77 -3 -78 -77 -3 -78 -3 0 236 0 235 -80 0 -80 0 0
160 0 160 -235 0 -235 0 0 75 0 75 235 0 235 0 0 390 0 390 -75 0 -75 0 0 315
0 315 -80 0 -80 0 0 75 0 75 -235 0 -235 0 0 -75 0 -75 155 0 155 0 0 -80 0
-80 80 0 80 0 0 -155 0 -155 -155 0 -155 0 0 80 0 80 -161 0 -161 0 4 75 3 75
-625 0 -625 0 3 -75 4 -74 -159 -3 -158 -3 -3 -77 -3 -78 -154 0 -155 0 0 155
0 154 78 3 77 3 3 78 3 77 154 0 155 0 0 75 0 75 -235 0 -235 0 0 -75z m1718
-467 l3 -78 154 0 155 0 0 -80 0 -80 155 0 155 0 0 -310 0 -310 -75 0 -75 0
-1 -122 c-1 -68 -5 -244 -8 -393 l-7 -270 -2 233 -2 232 -67 0 -68 0 0 -232 0
-233 -82 -3 -83 -3 0 81 0 80 -147 -2 c-82 -1 -131 -3 -110 -5 20 -2 35 -9 32
-14 -4 -5 -11 -6 -17 -3 -7 4 -8 2 -4 -4 4 -6 -5 -19 -19 -28 -24 -16 -25 -19
-25 -135 0 -65 -4 -120 -8 -123 -4 -2 -68 -6 -140 -7 -75 -1 -135 -6 -139 -12
-3 -6 -1 -7 5 -3 24 15 11 -6 -20 -32 -18 -15 -40 -26 -50 -26 -9 1 -16 -4
-15 -10 1 -6 -4 -10 -11 -8 -6 1 -11 -4 -10 -10 2 -7 -3 -12 -10 -10 -8 1 -11
-2 -8 -7 3 -5 -1 -15 -10 -22 -13 -10 -17 -10 -25 2 -7 12 -9 12 -9 -1 -1 -8
-15 -26 -33 -40 -17 -14 -28 -20 -25 -14 4 6 1 11 -7 11 -8 0 -12 -4 -9 -9 3
-4 -6 -20 -20 -35 -15 -15 -26 -24 -26 -20 0 4 -12 -3 -26 -17 -15 -13 -35
-23 -45 -21 -10 2 -18 -1 -16 -8 1 -7 -4 -11 -11 -9 -6 1 -11 -2 -10 -7 2 -5
0 -9 -5 -10 -4 0 -19 -12 -34 -25 -14 -13 -34 -23 -44 -21 -10 2 -18 -1 -16
-7 1 -6 -8 -16 -19 -23 -12 -6 -28 -16 -35 -22 -8 -6 -22 -9 -32 -8 -9 2 -15
-1 -11 -6 3 -5 244 -9 579 -9 l574 0 3 73 3 72 233 3 232 2 0 220 0 219 -72 4
-73 3 78 2 77 2 0 -230 0 -230 -235 0 -235 0 0 -75 0 -75 -620 0 -620 0 0 75
0 75 -235 0 -235 0 0 230 0 230 82 0 81 0 -6 242 c-4 133 -7 310 -7 395 l0
153 -75 0 -75 0 0 310 0 310 155 0 155 0 0 80 0 80 155 0 155 0 0 73 c0 41 3
77 7 80 3 4 214 6 467 5 l461 -3 3 -77z m-1718 -623 l0 -235 -80 0 -80 0 0
235 0 235 80 0 80 0 0 -235z m2658 -2 l2 -233 -80 0 -80 0 0 235 0 236 78 -3
77 -3 3 -232z"/>
<path d="M1870 3125 l0 -155 80 0 80 0 0 75 0 75 160 0 160 0 0 80 0 80 -240
0 -240 0 0 -155z"/>
<path d="M2810 3125 l0 -155 80 0 80 0 0 75 0 75 155 0 155 0 0 80 0 80 -235
0 -235 0 0 -155z"/>
<path d="M3270 3045 l0 -64 -147 -4 -148 -3 153 -2 152 -2 0 70 c0 39 -2 70
-5 70 -3 0 -5 -29 -5 -65z"/>
<path d="M2187 2344 c-4 -4 -7 -76 -7 -160 l0 -153 -132 -4 c-73 -2 -43 -3 67
-1 110 2 314 4 453 4 l253 0 -3 158 -3 157 -80 0 -80 0 -3 -77 -3 -78 -149 0
-149 0 -3 78 -3 77 -75 3 c-42 1 -79 0 -83 -4z"/>
<path d="M2851 2304 c0 -11 3 -14 6 -6 3 7 2 16 -1 19 -3 4 -6 -2 -5 -13z"/>
<path d="M1864 2120 c0 -52 1 -74 3 -47 2 26 2 68 0 95 -2 26 -3 4 -3 -48z"/>
<path d="M2503 1973 c0 -9 4 -10 14 -2 7 6 13 12 13 14 0 1 -6 2 -13 2 -8 0
-14 -6 -14 -14z"/>
<path d="M2343 1865 c0 -8 4 -12 9 -9 5 3 6 10 3 15 -9 13 -12 11 -12 -6z"/>
<path d="M2196 1748 c3 -5 10 -6 15 -3 13 9 11 12 -6 12 -8 0 -12 -4 -9 -9z"/>
<path d="M2076 1668 c3 -5 10 -6 15 -3 13 9 11 12 -6 12 -8 0 -12 -4 -9 -9z"/>
<path d="M1993 1623 c0 -9 4 -10 14 -2 7 6 13 12 13 14 0 1 -6 2 -13 2 -8 0
-14 -6 -14 -14z"/>
</g>
</svg>
